<?xml version="1.0" encoding="UTF-8"?>
<!DOCTYPE svg PUBLIC "-//W3C//DTD SVG 1.1//EN" "http://www.w3.org/Graphics/SVG/1.1/DTD/svg11.dtd">
<!-- Creator: CorelDRAW X8 -->
<svg xmlns="http://www.w3.org/2000/svg" xml:space="preserve" width="297mm" height="210mm" version="1.1" style="shape-rendering:geometricPrecision; text-rendering:geometricPrecision; image-rendering:optimizeQuality; fill-rule:evenodd; clip-rule:evenodd"
viewBox="0 0 29700 21000"
 xmlns:xlink="http://www.w3.org/1999/xlink">
 <defs>
  <style type="text/css">
   <![CDATA[
    .fil0 {fill:#1D3050}
   ]]>
  </style>
 </defs>
 <g id="Livello_x0020_1">
  <metadata id="CorelCorpID_0Corel-Layer"/>
  <path class="fil0" d="M10349 7414c-271,170 -794,376 -1006,547 -291,234 -56,674 271,616 154,-28 3887,-1970 3997,-2100 207,-244 -67,-645 -408,-533 -250,82 -727,377 -997,508 -312,-212 -1784,533 -1857,962z"/>
  <path class="fil0" d="M12730 9949c0,-395 355,-408 355,0l-36 2499c-243,60 -319,11 -319,-271l0 -2228zm-2118 0c0,-422 357,-392 357,0l0 2228c0,431 -357,411 -357,0l0 -2228zm1175 -272c292,-126 241,311 240,529l0 1585c0,173 83,611 -122,677 -300,96 -235,-350 -234,-548l0 -1585c0,-197 -79,-573 116,-658zm-2053 -714c0,1071 4,2143 0,3214 -5,1280 703,1009 2142,1009 1468,0 2092,252 2089,-1052 -3,-1054 0,-2108 0,-3180l-4231 9z"/>
 </g>
</svg>
